<?xml version="1.0" encoding="UTF-8" standalone="no"?>
<svg width="456px" height="456px" viewBox="0 0 456 456" version="1.1" xmlns="http://www.w3.org/2000/svg" xmlns:xlink="http://www.w3.org/1999/xlink" xmlns:sketch="http://www.bohemiancoding.com/sketch/ns">
    <title>logo-vector</title>
    <description>Created with Sketch (http://www.bohemiancoding.com/sketch)</description>
    <defs></defs>
    <g id="Page-1" stroke="none" stroke-width="1" fill="none" fill-rule="evenodd" sketch:type="MSPage">
        <rect d="M0,0 L0,456 L456,456 L456,0 L0,0 Z M0,0" id="Rectangle-17" fill="transparent" sketch:type="MSShapeGroup" x="0" y="0" width="456" height="456"></rect>
        <rect d="M93.9082031,112.09375 L93.9082031,412.09375 L293.908203,412.09375 L293.908203,112.09375 L93.9082031,112.09375 Z M93.9082031,112.09375" id="Rectangle-20" stroke="#000000" stroke-width="12" fill="#FFFFFF" sketch:type="MSShapeGroup" transform="translate(193.908203, 262.093750) rotate(-45.000000) translate(-193.908203, -262.093750) " x="93.9082031" y="112.09375" width="200" height="300"></rect>
        <path d="M226.644661,17.2233047 L297.355339,87.9339828 L368.066017,158.644661 L438.776695,229.355339 L368.066017,300.066017 L297.355339,229.355339 L226.644661,300.066017 L155.933983,229.355339 L226.644661,158.644661 L155.933983,87.9339828 L226.644661,17.2233047 Z M226.644661,17.2233047" id="Rectangle-21" stroke="#000000" stroke-width="12" fill="#FFFFFF" sketch:type="MSShapeGroup"></path>
    </g>
</svg>